<svg xmlns="http://www.w3.org/2000/svg" width="533.333" height="533.333" preserveAspectRatio="xMidYMid meet" version="1.0" viewBox="0 0 400 400"><metadata>Created by potrace 1.14, written by Peter Selinger 2001-2017</metadata><g fill="#000" stroke="none"><path d="M1953 3079 c-16 -6 -21 -13 -16 -25 11 -30 -20 -35 -122 -19 -59 10 -135 17 -135 13 0 -2 4 -18 9 -36 10 -32 9 -32 -27 -34 -20 0 -52 -1 -69 -1 -18 0 -34 -4 -34 -9 -1 -4 -2 -14 -3 -20 -1 -7 4 -23 11 -34 12 -18 11 -22 -2 -28 -8 -3 -17 -5 -20 -6 -3 0 -18 -6 -34 -14 -15 -8 -39 -17 -52 -20 -31 -6 -88 -36 -69 -36 12 0 12 -2 2 -9 -11 -7 -11 -11 2 -24 9 -8 16 -20 16 -25 0 -10 -53 -37 -130 -68 -22 -9 -40 -20 -40 -26 0 -5 -5 -6 -10 -3 -23 14 -3 -21 29 -52 41 -40 36 -57 -21 -83 -33 -14 -42 -24 -44 -44 0 -14 4 -26 10 -26 6 -1 2 -8 -9 -18 -28 -23 -37 -49 -20 -56 20 -7 7 -47 -26 -77 -36 -32 -43 -72 -14 -76 11 -2 30 -6 43 -9 l23 -5 -21 -28 c-11 -16 -20 -34 -20 -40 0 -6 -4 -11 -10 -11 -5 0 -10 -7 -10 -15 0 -8 -4 -15 -9 -15 -13 0 -34 -57 -26 -70 4 -6 23 -9 46 -6 44 5 56 -5 34 -27 -22 -22 -29 -76 -10 -83 8 -3 13 -9 10 -13 -2 -4 -6 -20 -9 -35 -4 -21 -1 -29 13 -33 15 -4 18 -14 16 -64 -2 -75 38 -203 95 -302 43 -75 93 -137 110 -137 5 0 10 -3 10 -7 0 -5 13 -15 29 -24 15 -9 35 -29 43 -45 64 -128 172 -234 304 -302 120 -61 246 -88 313 -67 10 3 29 8 40 10 35 7 204 93 241 122 53 43 140 137 140 150 0 7 4 13 8 13 5 0 15 12 23 28 31 61 50 63 41 4 -3 -20 -6 -55 -6 -77 -1 -39 0 -40 32 -38 52 2 61 23 58 141 -1 56 1 102 4 102 6 0 63 99 66 115 1 6 14 38 28 72 14 35 27 71 29 80 1 10 5 23 9 28 22 36 32 194 13 224 -3 5 3 16 13 23 22 15 21 50 -2 109 -17 41 -17 41 34 43 32 1 39 43 14 80 -9 14 -13 26 -10 26 4 0 2 9 -4 20 -8 15 -6 23 12 40 27 25 28 33 13 80 -7 19 -10 40 -8 47 2 6 -4 28 -13 50 -9 21 -18 40 -19 43 -1 3 -7 18 -14 34 -17 43 -28 99 -25 129 1 15 -1 27 -6 27 -4 0 -24 15 -43 34 -20 19 -38 32 -41 28 -3 -3 -6 2 -6 11 0 10 8 17 18 17 12 0 18 9 20 28 2 29 -2 31 -135 89 -40 16 -50 31 -44 66 1 6 -58 12 -82 8 -5 -1 -7 6 -5 16 2 10 9 17 15 16 10 -2 10 33 1 42 -2 2 -46 4 -98 6 -110 4 -130 12 -102 43 25 27 31 48 18 62 -10 11 -56 7 -56 -5 0 -4 -6 -8 -12 -8 -7 0 -30 -8 -51 -18 -33 -15 -42 -16 -63 -5 -21 12 -29 11 -64 -9 l-39 -22 -38 39 c-31 32 -42 38 -60 31z" transform="translate(0.000000,400.000000) scale(0.100000,-0.100000)"/></g></svg>